<svg width="400" height="168" viewBox="0 0 400 168" fill="none" xmlns="http://www.w3.org/2000/svg">
<path d="M289.373 36.5032C289.743 36.5032 290.069 36.4696 290.069 36.043C290.069 35.6866 289.711 35.6445 289.416 35.6445H288.819V36.5032H289.373ZM288.819 38.1702H288.329V35.2348H289.467C290.193 35.2348 290.56 35.4817 290.56 36.0795C290.56 36.6099 290.227 36.8316 289.777 36.8793L290.62 38.1702H290.061L289.284 36.9158H288.819V38.1702ZM289.358 34.4602C288.183 34.4602 287.271 35.3611 287.271 36.652C287.271 37.8587 288.065 38.8465 289.358 38.8465C290.517 38.8465 291.431 37.9513 291.431 36.652C291.431 35.3611 290.517 34.4602 289.358 34.4602ZM289.358 39.3067C287.799 39.3067 286.689 38.1646 286.689 36.652C286.689 35.058 287.922 34 289.358 34C290.777 34 292.01 35.058 292.01 36.652C292.01 38.2488 290.777 39.3067 289.358 39.3067ZM288.051 61.0754L292.01 57.2504V45.6238L280.136 34H240.55L228.673 45.6238V37.8755L224.716 34H208.88L204.923 37.8755V45.6238L197.005 53.3748L189.087 45.6238V37.8755L185.131 34H169.294L165.338 37.8755L161.379 34H145.545L141.586 37.8755V53.3748L121.793 34H105.959L102 37.8755V92.1245L105.959 96H121.793L125.752 92.1245V76.6252L145.545 96H161.379L165.338 92.1245V61.1231L185.131 80.4979V92.1245L189.087 96H204.923L208.88 92.1245V80.4979L228.673 61.1231V84.3734L240.55 96H280.136L292.01 84.3734V72.7496L288.051 68.8685H268.258V72.7496H252.425V57.2504H268.258V61.0754H288.051Z" fill="#FFCD09"/>
<path d="M215.917 122.421C216.056 121.63 216.02 120.817 215.812 120.041C215.604 119.266 215.228 118.547 214.713 117.937C214.197 117.327 213.555 116.841 212.832 116.514C212.108 116.188 211.323 116.028 210.532 116.048C209.805 116.025 209.082 116.151 208.404 116.418C207.727 116.686 207.109 117.089 206.589 117.604C206.068 118.119 205.655 118.735 205.374 119.416C205.093 120.097 204.95 120.828 204.954 121.566C204.909 122.324 205.026 123.082 205.297 123.79C205.568 124.497 205.985 125.137 206.522 125.666C207.058 126.194 207.7 126.599 208.405 126.852C209.109 127.105 209.859 127.201 210.604 127.133C211.726 127.261 212.856 126.983 213.796 126.349C214.737 125.715 215.428 124.765 215.748 123.666H212.671C212.497 124.028 212.222 124.33 211.88 124.534C211.538 124.738 211.144 124.835 210.748 124.814C210.424 124.848 210.096 124.809 209.789 124.698C209.482 124.588 209.203 124.409 208.973 124.175C208.742 123.941 208.566 123.658 208.457 123.346C208.349 123.034 208.31 122.701 208.344 122.372L215.917 122.421ZM208.344 120.492C208.374 119.922 208.617 119.385 209.024 118.99C209.43 118.596 209.969 118.373 210.532 118.368C211.072 118.393 211.582 118.627 211.957 119.022C212.333 119.417 212.545 119.943 212.551 120.492H208.344ZM193.438 126.743H196.804V121.102C196.804 119.955 197.381 118.856 198.655 118.856C200.506 118.856 200.338 120.321 200.338 121.762V126.743H203.728V120.101C203.728 118.587 203.439 116.048 200.002 116.048C199.362 116.046 198.732 116.203 198.167 116.506C197.601 116.808 197.117 117.246 196.756 117.782V116.341H193.438V126.743ZM191.323 112.386H187.933V115.023H191.323V112.386ZM187.933 126.743H191.323V116.341H187.933V126.743ZM176.61 123.373C176.61 126.303 179.206 127.133 181.658 127.133C184.11 127.133 186.611 126.205 186.611 123.397C186.585 122.683 186.305 122.003 185.824 121.482C185.342 120.961 184.69 120.636 183.99 120.565C182.427 120.223 180.168 120.028 180.168 119.051C180.168 118.075 181.057 118.246 181.61 118.246C181.988 118.235 182.361 118.328 182.692 118.514C182.836 118.618 182.952 118.758 183.028 118.921C183.103 119.083 183.137 119.263 183.125 119.442H186.226C186.106 116.707 183.822 116.048 181.418 116.048C179.014 116.048 176.61 116.732 176.61 119.247C176.61 121.762 179.278 122.152 181.418 122.689C181.995 122.836 183.053 122.982 183.053 123.788C183.053 124.594 182.115 124.911 181.466 124.911C181.021 124.929 180.583 124.801 180.216 124.545C180.037 124.41 179.893 124.233 179.796 124.029C179.7 123.824 179.654 123.599 179.663 123.373H176.61ZM175.335 116.341H171.801V121.859C171.801 123.715 170.695 124.301 169.95 124.301C169.205 124.301 168.267 123.813 168.267 122.421V116.341H164.902V122.641C164.902 125.4 165.743 127.133 168.724 127.133C169.345 127.128 169.955 126.967 170.501 126.664C171.046 126.362 171.509 125.927 171.849 125.4V126.743H175.143L175.335 116.341ZM152.761 121.591C152.711 122.348 152.815 123.107 153.066 123.822C153.318 124.537 153.711 125.191 154.221 125.745C154.732 126.299 155.349 126.741 156.034 127.043C156.72 127.345 157.459 127.501 158.206 127.501C158.953 127.501 159.692 127.345 160.378 127.043C161.063 126.741 161.68 126.299 162.191 125.745C162.701 125.191 163.094 124.537 163.346 123.822C163.597 123.107 163.701 122.348 163.651 121.591C163.701 120.834 163.597 120.074 163.346 119.359C163.094 118.645 162.701 117.99 162.191 117.436C161.68 116.882 161.063 116.44 160.378 116.138C159.692 115.836 158.953 115.681 158.206 115.681C157.459 115.681 156.72 115.836 156.034 116.138C155.349 116.44 154.732 116.882 154.221 117.436C153.711 117.99 153.318 118.645 153.066 119.359C152.815 120.074 152.711 120.834 152.761 121.591ZM156.127 121.591C156.127 120.248 156.607 118.661 158.194 118.661C159.781 118.661 160.262 120.248 160.262 121.591C160.262 122.934 159.781 124.496 158.194 124.496C156.607 124.496 156.127 122.934 156.127 121.591ZM135.211 126.743H138.601V121.713C138.601 119.564 139.129 118.856 140.332 118.856C141.534 118.856 141.606 119.637 141.606 120.858V126.743H144.995V121.688C144.995 120.004 145.14 118.856 146.582 118.856C147.448 118.856 148.001 119.54 148.001 120.663V126.743H151.39V120.565C151.39 118.563 151.03 116.048 147.736 116.048C147.103 116.03 146.475 116.175 145.912 116.469C145.348 116.764 144.868 117.199 144.515 117.733C144.246 117.172 143.813 116.709 143.275 116.407C142.737 116.106 142.12 115.98 141.51 116.048C140.91 116.048 140.321 116.208 139.802 116.513C139.283 116.817 138.852 117.255 138.552 117.782V116.341H135.211V126.743ZM133.336 112.386H129.85V115.023H133.336V112.386ZM129.85 126.743H133.336V116.341H129.85V126.743ZM118.094 126.743H128.527V123.593H121.796V112.386H118.094V126.743ZM103.669 117.318C103.212 116.756 102.659 116.268 102.659 115.487C102.7 115.219 102.834 114.976 103.037 114.801C103.24 114.626 103.499 114.531 103.765 114.534C103.917 114.521 104.07 114.54 104.214 114.59C104.359 114.641 104.491 114.722 104.602 114.828C104.713 114.934 104.801 115.063 104.86 115.206C104.919 115.349 104.947 115.503 104.943 115.658C104.943 116.512 104.342 116.976 103.645 117.415L103.669 117.318ZM107.467 126.743H111.699L108.621 123.324C109.497 122.351 110.044 121.119 110.184 119.808H107.275C107.213 120.313 107.04 120.796 106.77 121.224L105.28 119.418C105.979 119.12 106.579 118.622 107.006 117.985C107.433 117.348 107.668 116.599 107.684 115.828C107.675 115.313 107.563 114.805 107.356 114.335C107.148 113.865 106.849 113.442 106.476 113.093C106.103 112.744 105.664 112.475 105.185 112.303C104.707 112.131 104.199 112.06 103.693 112.093C102.683 112.039 101.693 112.395 100.94 113.082C100.188 113.768 99.734 114.729 99.6781 115.755C99.7318 116.803 100.179 117.791 100.928 118.514C100.049 118.823 99.2762 119.384 98.7044 120.129C98.1326 120.874 97.786 121.772 97.7067 122.714C97.7178 123.331 97.8533 123.939 98.1049 124.501C98.3564 125.063 98.7186 125.566 99.1692 125.98C99.6197 126.394 100.149 126.71 100.724 126.909C101.3 127.107 101.909 127.183 102.515 127.133C104.014 127.158 105.47 126.618 106.602 125.619L107.467 126.743ZM104.679 123.324C104.176 123.85 103.517 124.193 102.803 124.301C102.339 124.328 101.883 124.169 101.533 123.859C101.182 123.549 100.965 123.111 100.928 122.641C100.928 121.762 101.89 121.054 102.587 120.736L104.679 123.324ZM90.254 112.386H86.8642V115.023H90.254V112.386ZM86.8642 126.743H90.254V116.341H86.8642V126.743ZM75.1802 126.743H78.9306L80.6375 123.69L82.4166 126.743H86.167L82.4887 121.273L85.7342 116.39H82.1521L80.6856 118.832L79.2431 116.39H75.4927L78.7864 121.273L75.1802 126.743ZM68.0881 119.418C68.1477 119.02 68.3559 118.661 68.6693 118.416C68.9828 118.17 69.3773 118.057 69.771 118.099C70.4681 118.099 71.4057 118.417 71.4057 119.198C71.4057 119.979 71.0932 120.052 70.5162 120.175C68.1121 120.663 64.506 120.394 64.506 123.813C64.506 125.986 66.0686 126.987 68.04 126.987C68.6616 127.013 69.282 126.912 69.8643 126.689C70.4467 126.467 70.979 126.128 71.4298 125.693C71.4687 126.047 71.5329 126.398 71.6221 126.743H75.0359C74.6966 125.883 74.5568 124.956 74.6273 124.032V119.564C74.6273 116.585 72.2231 116.048 69.819 116.048C68.6809 116.01 67.5508 116.253 66.5254 116.756C66.0394 117.041 65.635 117.45 65.3525 117.943C65.07 118.435 64.919 118.994 64.9147 119.564L68.0881 119.418ZM67.8957 123.813C67.8957 122.982 68.5208 122.665 69.2901 122.494C70.008 122.361 70.7094 122.148 71.3817 121.859C71.3817 124.032 70.9249 124.96 69.3142 124.96C68.5449 125.009 67.8957 124.667 67.8957 123.813ZM66.1888 112.386H54V115.633H58.2312V126.743H61.9336V115.633H66.1888V112.386Z" fill="#111111"/>
<path d="M330.09 126.764H333.48V121.026C333.48 119.878 334.033 118.804 335.307 118.804C337.158 118.804 336.99 120.244 336.99 121.685V126.764H340.5V120.025C340.5 118.511 340.211 115.971 336.774 115.971C336.134 115.97 335.505 116.127 334.939 116.429C334.373 116.731 333.889 117.169 333.528 117.705V116.264H330.09V126.764ZM317.829 121.514C317.78 122.271 317.884 123.031 318.135 123.745C318.386 124.46 318.779 125.115 319.29 125.669C319.8 126.223 320.417 126.664 321.103 126.966C321.788 127.268 322.527 127.424 323.275 127.424C324.022 127.424 324.761 127.268 325.446 126.966C326.132 126.664 326.749 126.223 327.259 125.669C327.77 125.115 328.163 124.46 328.414 123.745C328.665 123.031 328.769 122.271 328.72 121.514C328.769 120.757 328.665 119.997 328.414 119.283C328.163 118.568 327.77 117.913 327.259 117.359C326.749 116.805 326.132 116.364 325.446 116.062C324.761 115.76 324.022 115.604 323.275 115.604C322.527 115.604 321.788 115.76 321.103 116.062C320.417 116.364 319.8 116.805 319.29 117.359C318.779 117.913 318.386 118.568 318.135 119.283C317.884 119.997 317.78 120.757 317.829 121.514ZM321.219 121.514C321.219 120.196 321.7 118.584 323.263 118.584C324.825 118.584 325.33 120.196 325.33 121.514C325.33 122.832 324.825 124.444 323.263 124.444C321.7 124.444 321.267 122.857 321.267 121.514H321.219ZM316.459 112.407H312.949V114.848H316.459V112.407ZM313.069 126.837H316.459V116.338H312.949L313.069 126.837ZM301.553 123.296C301.674 126.226 304.174 127.057 306.626 127.057C309.078 127.057 311.651 126.129 311.651 123.321C311.62 122.608 311.339 121.931 310.858 121.411C310.377 120.891 309.729 120.564 309.03 120.489C307.468 120.147 305.208 119.976 305.208 118.975C305.208 117.974 306.097 118.193 306.65 118.193C307.026 118.176 307.399 118.26 307.732 118.438C307.878 118.54 307.995 118.68 308.071 118.842C308.147 119.005 308.179 119.186 308.165 119.365H311.29C311.29 116.631 308.886 115.971 306.482 115.971C304.078 115.971 301.674 116.655 301.674 119.17C301.674 121.685 304.342 122.076 306.482 122.613C307.083 122.759 308.141 122.93 308.141 123.736C308.141 124.542 307.203 124.835 306.554 124.835C306.109 124.852 305.671 124.724 305.304 124.468C305.125 124.333 304.981 124.156 304.884 123.952C304.788 123.748 304.742 123.523 304.751 123.296H301.553ZM290.903 123.296C290.903 126.226 293.5 127.057 295.952 127.057C298.404 127.057 300.904 126.129 300.904 123.321C300.874 122.608 300.592 121.931 300.112 121.411C299.631 120.891 298.982 120.564 298.284 120.489C296.721 120.147 294.461 119.976 294.461 118.975C294.461 117.974 295.351 118.193 295.928 118.193C296.296 118.175 296.662 118.26 296.986 118.438C297.132 118.54 297.249 118.68 297.325 118.842C297.401 119.005 297.433 119.186 297.418 119.365H300.544C300.544 116.631 298.14 115.971 295.736 115.971C293.331 115.971 290.927 116.655 290.927 119.17C290.927 121.685 293.596 122.076 295.736 122.613C296.337 122.759 297.37 122.93 297.37 123.736C297.37 124.542 296.457 124.835 295.784 124.835C295.339 124.852 294.9 124.724 294.533 124.468C294.354 124.333 294.21 124.156 294.114 123.952C294.018 123.748 293.972 123.523 293.98 123.296H290.903ZM289.509 112.407H286.119V114.848H289.509V112.407ZM286.119 126.837H289.509V116.338H286.119V126.837ZM267.968 126.837H271.358V121.709C271.358 119.561 271.887 118.877 273.089 118.877C274.291 118.877 274.363 119.634 274.363 120.855V126.837H277.753V121.612C277.753 119.927 277.897 118.804 279.339 118.804C280.205 118.804 280.758 119.463 280.758 120.586V126.764H284.148V120.489C284.148 118.486 283.787 115.971 280.493 115.971C279.861 115.958 279.235 116.104 278.672 116.399C278.11 116.693 277.628 117.125 277.272 117.656C277.003 117.095 276.57 116.632 276.032 116.331C275.494 116.029 274.878 115.904 274.267 115.971C273.665 115.974 273.074 116.136 272.551 116.439C272.029 116.743 271.593 117.179 271.286 117.705V116.264H267.968V126.837ZM249.937 126.837H253.327V121.709C253.327 119.561 253.856 118.877 255.058 118.877C256.26 118.877 256.332 119.634 256.332 120.855V126.837H259.722V121.612C259.722 119.927 259.866 118.804 261.309 118.804C262.174 118.804 262.727 119.463 262.727 120.586V126.764H266.117V120.489C266.117 118.486 265.756 115.971 262.463 115.971C261.83 115.958 261.204 116.104 260.641 116.399C260.079 116.693 259.597 117.125 259.241 117.656C258.98 117.116 258.566 116.667 258.052 116.367C257.538 116.067 256.948 115.929 256.356 115.971C255.754 115.974 255.163 116.136 254.641 116.439C254.118 116.743 253.682 117.179 253.375 117.705V116.264H249.937V126.837ZM237.676 121.587C237.66 122.314 237.789 123.037 238.057 123.712C238.325 124.386 238.725 124.998 239.234 125.51C239.742 126.022 240.348 126.423 241.015 126.689C241.681 126.955 242.394 127.08 243.11 127.057C243.833 127.08 244.553 126.953 245.225 126.683C245.898 126.413 246.509 126.006 247.021 125.486C247.532 124.967 247.933 124.346 248.199 123.663C248.465 122.98 248.59 122.248 248.567 121.514C248.59 120.78 248.465 120.048 248.199 119.365C247.933 118.682 247.532 118.061 247.021 117.542C246.509 117.023 245.898 116.615 245.225 116.345C244.553 116.075 243.833 115.948 243.11 115.971C242.388 115.948 241.669 116.075 240.997 116.345C240.326 116.615 239.716 117.023 239.207 117.543C238.697 118.063 238.298 118.684 238.035 119.367C237.772 120.05 237.65 120.781 237.676 121.514V121.587ZM241.066 121.587C241.066 120.269 241.547 118.657 243.11 118.657C244.672 118.657 245.177 120.269 245.177 121.587C245.177 122.906 244.696 124.517 243.11 124.517C241.523 124.517 241.066 122.857 241.066 121.514V121.587ZM236.739 117.559C236.586 115.96 235.824 114.486 234.616 113.451C233.408 112.415 231.849 111.9 230.272 112.016C229.309 112.001 228.354 112.188 227.467 112.564C226.579 112.941 225.777 113.5 225.111 114.206C224.445 114.912 223.93 115.749 223.598 116.666C223.266 117.584 223.123 118.561 223.18 119.536C223.123 120.512 223.266 121.489 223.598 122.406C223.93 123.323 224.445 124.161 225.111 124.867C225.777 125.573 226.579 126.131 227.467 126.508C228.354 126.885 229.309 127.072 230.272 127.057C231.083 127.123 231.9 127.021 232.671 126.756C233.443 126.491 234.153 126.07 234.758 125.516C235.363 124.963 235.851 124.291 236.192 123.539C236.532 122.788 236.718 121.974 236.739 121.148H233.036C233.038 121.52 232.963 121.888 232.816 122.229C232.67 122.57 232.456 122.877 232.187 123.129C231.918 123.382 231.6 123.575 231.254 123.696C230.908 123.817 230.54 123.864 230.175 123.834C227.771 123.834 226.882 121.685 226.882 119.536C226.882 117.388 227.795 115.263 230.175 115.263C230.845 115.173 231.522 115.357 232.059 115.773C232.595 116.19 232.947 116.806 233.036 117.485L236.739 117.559Z" fill="#111111"/>
</svg>
